<svg width="43" height="48" viewBox="0 0 43 48" fill="none" xmlns="http://www.w3.org/2000/svg">
<path d="M24.1406 42.8042C20.8795 43.6738 15.4443 47.1523 15.4443 47.1523C15.4443 47.1523 20.4447 41.9346 24.1406 40.1953C27.8363 38.4561 28.6135 38.4561 30.2277 38.4561H30.2279C31.8423 38.456 32.8368 39.1083 32.6194 40.1953C32.4295 41.1445 31.6205 41.2571 30.0105 41.7171C28.4005 42.1771 27.4017 41.9345 24.1406 42.8042Z" fill="#0C896B"/>
<path d="M20.8798 41.2823C20.8798 41.2823 13.4838 44.9778 8.05288 44.7608C2.62198 44.5437 0.23087 43.4566 0.00902339 39.9781C-0.212823 36.4996 3.69934 33.2383 6.96585 31.499C8.17455 30.8554 9.64887 30.4798 11.0711 30.2729C8.96015 28.0536 6.67648 24.6489 5.0092 20.6287C2.39447 14.324 2.17706 9.54103 2.83514 6.06254C3.49323 2.58405 4.56852 0.844886 6.96585 0.192717C9.36318 -0.459451 11.9484 0.45166 15.8706 4.34408C19.7928 8.2365 22.0239 12.5876 23.9235 18.8895C25.2577 23.3158 25.4189 26.0064 25.4453 30.6294C25.4605 33.2668 25.0105 37.369 25.0105 37.369C25.0105 37.369 31.5386 31.2819 34.5764 25.6291C37.6142 19.9762 39.136 15.6347 40.0115 12.3673C40.887 9.0999 41.1103 6.71528 39.5826 5.41059C38.0549 4.1059 33.9359 6.28046 31.3212 8.45426C28.7064 10.6281 25.2338 14.9764 25.2338 14.9764C25.2338 14.9764 28.4949 8.88854 32.843 6.06254C37.1911 3.23653 39.5826 2.66719 41.3218 3.67134C43.0611 4.6755 43.4959 8.94075 42.403 13.0195C41.3101 17.0983 39.3948 21.4862 36.3156 26.2813C33.2256 31.0933 28.9297 34.9778 27.4079 36.4996C25.886 38.0215 23.2771 39.7607 23.2771 39.7607C23.2771 39.7607 25.0105 30.8468 23.0539 23.2376C21.0972 15.6284 20.8857 16.0848 18.4884 11.9325C16.5913 8.64671 14.9921 6.53902 13.0443 4.77889C11.0966 3.01876 9.36318 2.06003 7.40653 2.58431C4.79766 3.28336 3.64353 7.4185 3.92217 10.8455C4.34811 16.0841 5.21774 18.4755 7.18326 22.8028C8.50238 25.7069 10.3282 28.3493 12.2876 30.1331C14.216 29.9673 15.8567 30.0809 16.3143 30.1946C17.1898 30.412 18.6999 31.7164 18.4884 32.586C18.2768 33.4557 16.9607 33.8826 14.3577 32.8034C13.5676 32.4759 12.6368 31.8064 11.6504 30.8565C9.90813 30.9613 8.10924 31.8996 6.53542 33.0209C5.00925 34.1082 1.96557 36.4996 2.18297 39.5433C2.40038 42.587 3.67029 42.8041 8.9225 43.4563C14.1747 44.1085 20.8798 41.2823 20.8798 41.2823Z" fill="#0C896B"/>
</svg>
